<?xml version="1.0" encoding="UTF-8"?>
<!-- Generator: Adobe Illustrator 14.0.0, SVG Export Plug-In . SVG Version: 6.00 Build 43363)  -->
<!DOCTYPE svg PUBLIC "-//W3C//DTD SVG 1.0//EN" "http://www.w3.org/TR/2001/REC-SVG-20010904/DTD/svg10.dtd">
<svg version="1.0" id="Layer_1" xmlns="http://www.w3.org/2000/svg" xmlns:xlink="http://www.w3.org/1999/xlink" x="0px" y="0px" width="240.227px" height="240.634px" viewBox="0 0 240.227 240.634" enable-background="new 0 0 240.227 240.634" xml:space="preserve">
<g>
	<g>
		<g>
			<path d="M73.735,169.979c0-29.291,0-58.583,0-87.874c0-13.542-21-13.542-21,0c0,29.291,0,58.583,0,87.874     C52.735,183.521,73.735,183.521,73.735,169.979L73.735,169.979z"/>
		</g>
	</g>
	<g>
		<g>
			<path d="M204.966,58.515c-49.742,0-99.482,0-149.223,0c-6.952,0-13.903,0-20.855,0c-15.799,0-15.799,24.5,0,24.5     c49.741,0,99.482,0,149.223,0c6.951,0,13.904,0,20.855,0C220.765,83.015,220.765,58.515,204.966,58.515L204.966,58.515z"/>
		</g>
	</g>
	<g>
		<g>
			<path d="M187.121,169.979c0-23.622,0-47.245,0-70.867c0-13.542-21.002-13.542-21.002,0c0,23.622,0,47.245,0,70.867     C166.119,183.521,187.121,183.521,187.121,169.979L187.121,169.979z"/>
		</g>
	</g>
	<g>
		<g>
			<path d="M212.226,120.376c-0.018,2.797-0.125,5.583-0.324,8.373c-0.1,1.377-0.25,2.749-0.402,4.121     c0.326-2.953-0.242,1.485-0.275,1.698c-0.941,5.765-2.469,11.422-4.346,16.947c-0.43,1.26-0.906,2.504-1.381,3.747     c-1.557,4.063,1.113-2.424-0.641,1.547c-1.066,2.414-2.266,4.768-3.51,7.095c-1.238,2.317-2.605,4.564-4.012,6.784     c-0.701,1.106-1.443,2.188-2.186,3.268c-0.273,0.396-3.355,4.524-1.711,2.418c-3.217,4.119-6.809,7.936-10.59,11.537     c-5.088,4.844-6.305,5.673-11.51,9.154c-4.377,2.928-9.018,5.443-13.775,7.688c-0.184,0.086-4.18,1.795-1.516,0.698     c-1.23,0.506-2.479,0.966-3.727,1.426c-2.932,1.079-5.928,1.973-8.941,2.787c-2.613,0.707-5.264,1.263-7.922,1.767     c-1.34,0.254-2.689,0.456-4.039,0.658c2.953-0.442-1.543,0.12-1.742,0.14c-6.023,0.587-12.096,0.547-18.125,0.116     c-1.377-0.098-2.75-0.25-4.121-0.401c2.953,0.326-1.486-0.242-1.699-0.276c-2.676-0.437-5.324-1.026-7.957-1.667     c-2.607-0.635-5.175-1.418-7.726-2.249c-1.268-0.413-2.519-0.874-3.77-1.335c-0.829-0.312-1.654-0.633-2.476-0.965     c1.303,0.562,1.199,0.513-0.312-0.149c-4.819-2.128-9.432-4.703-13.879-7.521c-2.213-1.402-4.346-2.927-6.449-4.487     c2.281,1.693-1.112-0.929-1.268-1.056c-1.346-1.105-2.644-2.269-3.934-3.438c-3.872-3.511-7.415-7.37-10.73-11.405     c-2.721-3.312,1.552,2.136-1.006-1.309c-0.78-1.051-1.521-2.131-2.263-3.21c-1.735-2.525-3.312-5.154-4.821-7.819     c-5.237-9.243-8.006-17.187-10.274-29.147c-0.254-1.341-0.456-2.69-0.659-4.04c0.443,2.953-0.119-1.541-0.139-1.741     c-0.271-2.773-0.378-5.561-0.433-8.345c-0.055-2.801,0.054-5.602,0.217-8.396c0.081-1.382,0.215-2.76,0.35-4.137     c0.204-1.702,0.206-1.825,0.005-0.369c0.13-0.901,0.271-1.801,0.423-2.699c0.868-5.326,2.245-10.559,3.916-15.685     c0.413-1.268,0.874-2.519,1.335-3.77c0.067-0.184,1.713-4.233,0.579-1.577c1.21-2.835,2.595-5.591,4.046-8.308     c5.651-10.578,9.834-15.758,18.498-24.009c1.893-1.802,3.882-3.499,5.9-5.157c3.312-2.721-2.135,1.552,1.309-1.006     c1.052-0.78,2.131-1.522,3.21-2.264c4.701-3.229,9.712-5.985,14.864-8.417c0.183-0.086,4.179-1.796,1.516-0.698     c1.229-0.507,2.478-0.967,3.726-1.426c2.511-0.925,5.071-1.706,7.644-2.438c2.598-0.738,5.236-1.326,7.883-1.863     c1.334-0.271,2.68-0.49,4.023-0.71c1.686-0.251,1.803-0.27,0.352-0.057c0.912-0.106,1.826-0.202,2.742-0.285     c12.531-1.222,21.275-0.356,31.902,2.229c2.607,0.634,5.176,1.417,7.727,2.248c1.268,0.413,2.52,0.874,3.77,1.335     c0.184,0.067,4.232,1.713,1.578,0.58c5.252,2.241,10.271,5.002,15.09,8.057c1.477,0.936,2.912,1.935,4.34,2.94     c0.709,0.508,1.412,1.023,2.109,1.548c-2.281-1.693,1.113,0.929,1.268,1.056c3.365,2.764,6.506,5.792,9.508,8.943     c1.201,1.262,2.348,2.573,3.486,3.892c0.564,0.663,1.123,1.333,1.672,2.01c2.721,3.312-1.553-2.136,1.006,1.309     c2.607,3.512,4.93,7.227,7.084,11.03C208.345,89.162,212.125,104.743,212.226,120.376c0.049,7.631,6.332,14,14,14     c7.594,0,14.049-6.368,14-14c-0.156-24.052-7.256-47.854-20.898-67.718c-13.918-20.264-33.217-35.049-55.836-44.366     c-45.01-18.539-99.026-4.942-131.79,30.316C-2.437,75.346-9.277,129.802,12.51,174.526     c21.111,43.335,69.443,69.732,117.167,65.703c29.885-2.522,58.037-16.101,78.475-38.092c20.584-22.147,31.879-51.6,32.074-81.762     c0.049-7.632-6.406-14-14-14C218.558,106.376,212.275,112.745,212.226,120.376z"/>
		</g>
	</g>
	<g>
		<g>
			<g>
				<g>
					<path d="M137.773,142.464c-0.242,9.546-7.992,16.779-17.848,17.014c-9.854,0.234-17.613-7.814-17.846-17.014       c-0.34-13.517-21.341-13.55-20.999,0c0.541,21.392,17.679,37.51,38.845,38.014c21.164,0.504,38.326-17.382,38.848-38.014       C159.115,128.914,138.115,128.947,137.773,142.464L137.773,142.464z"/>
				</g>
			</g>
			<g>
				<g>
					<path d="M102.08,141.088c0-13.758,0-27.517,0-41.274c0-13.542-20.999-13.542-20.999,0c0,13.758,0,27.517,0,41.274       C81.081,154.63,102.08,154.63,102.08,141.088L102.08,141.088z"/>
				</g>
			</g>
		</g>
		<g>
			<g>
				<path d="M158.773,141.212c0-14.033,0-28.067,0-42.101c0-13.542-21-13.542-21,0c0,14.033,0,28.067,0,42.101      C137.773,154.754,158.773,154.754,158.773,141.212L158.773,141.212z"/>
			</g>
		</g>
	</g>
</g>
</svg>